<svg width="95" height="95" viewBox="0 0 95 95" fill="none" xmlns="http://www.w3.org/2000/svg">
<rect x="0.796875" y="0.56543" width="93.6036" height="93.6036" rx="9.36036" fill="white"/>
<g clip-path="url(#clip0_1476_116)">
<path d="M47.5986 47.3671C47.5986 42.2502 51.7467 38.1021 56.8637 38.1021C61.9806 38.1021 66.1288 42.2502 66.1288 47.3671C66.1288 52.4841 61.9806 56.6322 56.8637 56.6322C51.7467 56.6322 47.5986 52.4841 47.5986 47.3671Z" fill="#1ABCFE"/>
<path d="M29.0684 65.8974C29.0684 60.7805 33.2165 56.6323 38.3334 56.6323H47.5985V65.8974C47.5985 71.0144 43.4504 75.1625 38.3334 75.1625C33.2165 75.1625 29.0684 71.0144 29.0684 65.8974Z" fill="#0ACF83"/>
<path d="M47.5986 19.572V38.1021H56.8637C61.9807 38.1021 66.1288 33.954 66.1288 28.8371C66.1288 23.7201 61.9807 19.572 56.8637 19.572H47.5986Z" fill="#FF7262"/>
<path d="M29.0684 28.8371C29.0684 33.954 33.2165 38.1021 38.3334 38.1021H47.5985V19.572H38.3334C33.2165 19.572 29.0684 23.7201 29.0684 28.8371Z" fill="#F24E1E"/>
<path d="M29.0684 47.3671C29.0684 52.4841 33.2165 56.6322 38.3334 56.6322H47.5985V38.1021H38.3334C33.2165 38.1021 29.0684 42.2502 29.0684 47.3671Z" fill="#A259FF"/>
</g>
<defs>
<clipPath id="clip0_1476_116">
<rect width="37.4414" height="56.1622" fill="white" transform="translate(28.8779 19.2861)"/>
</clipPath>
</defs>
</svg>
