<svg width="94" height="94" viewBox="0 0 94 94" fill="none" xmlns="http://www.w3.org/2000/svg">
<rect x="0.235352" y="0.330566" width="93.6036" height="93.6036" rx="9.36036" fill="white"/>
<g clip-path="url(#clip0_1476_104)">
<mask id="mask0_1476_104" style="mask-type:luminance" maskUnits="userSpaceOnUse" x="4" y="5" width="86" height="85">
<path d="M4.91553 5.01066H89.1588V89.2539H4.91553V5.01066Z" fill="white"/>
</mask>
<g mask="url(#mask0_1476_104)">
<path d="M72.1644 33.7092C74.3815 37.7545 75.6431 42.3969 75.6431 47.3352C75.6431 57.8138 69.9644 66.9622 61.5203 71.8854L70.1954 46.803C71.8157 42.7509 72.3553 39.5109 72.3553 36.6299C72.3553 35.5842 72.2864 34.6138 72.1644 33.7092ZM51.1551 34.0184C52.865 33.9285 54.4058 33.7486 54.4058 33.7486C55.9362 33.5674 55.7557 31.3183 54.2246 31.4079C54.2246 31.4079 49.624 31.7689 46.6541 31.7689C43.8634 31.7689 39.1738 31.4079 39.1738 31.4079C37.6421 31.3183 37.4626 33.658 38.9936 33.7486C38.9936 33.7486 40.4425 33.9285 41.9729 34.0184L46.3977 46.1431L40.1811 64.7846L29.8385 34.0184C31.5498 33.9285 33.0889 33.7486 33.0889 33.7486C34.6183 33.5674 34.4378 31.3183 32.9074 31.4079C32.9074 31.4079 28.3078 31.7689 25.3375 31.7689C24.8047 31.7689 24.1765 31.7559 23.5096 31.7345C28.5883 24.0242 37.3175 18.9325 47.2408 18.9325C54.6348 18.9325 61.3676 21.7597 66.4205 26.3897C66.2981 26.3823 66.1788 26.367 66.0528 26.367C63.2627 26.367 61.283 28.7973 61.283 31.4079C61.283 33.7486 62.6336 35.729 64.0731 38.0694C65.1532 39.9612 66.4148 42.3912 66.4148 45.9027C66.4148 48.3334 65.4798 51.1545 64.2536 55.0846L61.4197 64.5502L51.1551 34.0184ZM47.2408 75.7402C44.4527 75.7402 41.762 75.3313 39.2166 74.5829L47.7396 49.8197L56.4694 73.7384C56.5269 73.8788 56.5975 74.0082 56.6727 74.1299C53.7205 75.1692 50.5483 75.7402 47.2408 75.7402ZM18.8381 47.3352C18.8381 43.2173 19.7213 39.3083 21.2975 35.7761L34.8463 72.8973C25.3706 68.294 18.8381 58.5776 18.8381 47.3352ZM47.2408 15.745C29.8215 15.745 15.6499 29.9162 15.6499 47.3352C15.6499 64.7548 29.8215 78.9277 47.2408 78.9277C64.6597 78.9277 78.832 64.7548 78.832 47.3352C78.832 29.9162 64.6597 15.745 47.2408 15.745Z" fill="#3F3C3C"/>
</g>
</g>
<defs>
<clipPath id="clip0_1476_104">
<rect width="84.2432" height="84.2432" fill="white" transform="translate(4.91553 5.01074)"/>
</clipPath>
</defs>
</svg>
