<svg width="86" height="85" viewBox="0 0 86 85" fill="none" xmlns="http://www.w3.org/2000/svg">
<g clip-path="url(#clip0_1476_105)">
<mask id="mask0_1476_105" style="mask-type:luminance" maskUnits="userSpaceOnUse" x="0" y="0" width="86" height="85">
<path d="M0.915527 0.0106639H85.1588V84.2539H0.915527V0.0106639Z" fill="white"/>
</mask>
<g mask="url(#mask0_1476_105)">
<path d="M68.1644 28.7092C70.3815 32.7545 71.6431 37.3969 71.6431 42.3352C71.6431 52.8138 65.9644 61.9622 57.5203 66.8854L66.1954 41.803C67.8157 37.7509 68.3553 34.5109 68.3553 31.6299C68.3553 30.5842 68.2864 29.6138 68.1644 28.7092ZM47.1551 29.0184C48.865 28.9285 50.4058 28.7486 50.4058 28.7486C51.9362 28.5674 51.7557 26.3183 50.2246 26.4079C50.2246 26.4079 45.624 26.7689 42.6541 26.7689C39.8634 26.7689 35.1738 26.4079 35.1738 26.4079C33.6421 26.3183 33.4626 28.658 34.9936 28.7486C34.9936 28.7486 36.4425 28.9285 37.9729 29.0184L42.3977 41.1431L36.1811 59.7846L25.8385 29.0184C27.5498 28.9285 29.0889 28.7486 29.0889 28.7486C30.6183 28.5674 30.4378 26.3183 28.9074 26.4079C28.9074 26.4079 24.3078 26.7689 21.3375 26.7689C20.8047 26.7689 20.1765 26.7559 19.5096 26.7345C24.5883 19.0242 33.3175 13.9325 43.2408 13.9325C50.6348 13.9325 57.3676 16.7597 62.4205 21.3897C62.2981 21.3823 62.1788 21.367 62.0528 21.367C59.2627 21.367 57.283 23.7973 57.283 26.4079C57.283 28.7486 58.6336 30.729 60.0731 33.0694C61.1532 34.9612 62.4148 37.3912 62.4148 40.9027C62.4148 43.3334 61.4798 46.1545 60.2536 50.0846L57.4197 59.5502L47.1551 29.0184ZM43.2408 70.7402C40.4527 70.7402 37.762 70.3313 35.2166 69.5829L43.7396 44.8197L52.4694 68.7384C52.5269 68.8788 52.5975 69.0082 52.6727 69.1299C49.7205 70.1692 46.5483 70.7402 43.2408 70.7402ZM14.8381 42.3352C14.8381 38.2173 15.7213 34.3083 17.2975 30.7761L30.8463 67.8973C21.3706 63.294 14.8381 53.5776 14.8381 42.3352ZM43.2408 10.745C25.8215 10.745 11.6499 24.9162 11.6499 42.3352C11.6499 59.7548 25.8215 73.9277 43.2408 73.9277C60.6597 73.9277 74.832 59.7548 74.832 42.3352C74.832 24.9162 60.6597 10.745 43.2408 10.745Z" fill="#3F3C3C"/>
</g>
</g>
<defs>
<clipPath id="clip0_1476_105">
<rect width="84.2432" height="84.2432" fill="white" transform="translate(0.915527 0.0107422)"/>
</clipPath>
</defs>
</svg>
