<svg width="16" height="15" viewBox="0 0 16 15" fill="none" xmlns="http://www.w3.org/2000/svg">
<path d="M0.666504 8.00008C0.666504 6.97786 0.858282 6.0223 1.24184 5.13341C1.62495 4.24453 2.14984 3.46941 2.8165 2.80808C3.48317 2.14719 4.26095 1.62497 5.14984 1.24141C6.03873 0.858304 6.98873 0.666748 7.99984 0.666748C9.01095 0.666748 9.96095 0.858304 10.8498 1.24141C11.7387 1.62497 12.5165 2.14719 13.1832 2.80808C13.8498 3.46941 14.3749 4.24453 14.7585 5.13341C15.1416 6.0223 15.3332 6.97786 15.3332 8.00008H13.9998C13.9998 7.16675 13.8416 6.38608 13.5252 5.65808C13.2083 4.93053 12.7776 4.29453 12.2332 3.75008C11.6887 3.20564 11.0527 2.77786 10.3252 2.46675C9.59717 2.15564 8.82206 2.00008 7.99984 2.00008C7.17762 2.00008 6.4025 2.15564 5.6745 2.46675C4.94695 2.77786 4.31095 3.20564 3.7665 3.75008C3.22206 4.29453 2.79139 4.93053 2.4745 5.65808C2.15806 6.38608 1.99984 7.16675 1.99984 8.00008H0.666504ZM3.33317 8.00008C3.33317 6.68897 3.78873 5.58342 4.69984 4.68341C5.61095 3.78341 6.71095 3.33341 7.99984 3.33341C9.28873 3.33341 10.3887 3.78341 11.2998 4.68341C12.2109 5.58342 12.6665 6.68897 12.6665 8.00008H11.3332C11.3332 7.07786 11.0083 6.29164 10.3585 5.64141C9.70828 4.99164 8.92206 4.66675 7.99984 4.66675C7.07762 4.66675 6.29162 4.99164 5.64184 5.64141C4.99162 6.29164 4.6665 7.07786 4.6665 8.00008H3.33317ZM5.99984 14.9334L5.0665 14.0001L7.33317 11.7334V9.53341C7.03317 9.40008 6.79162 9.19453 6.6085 8.91675C6.42495 8.63897 6.33317 8.33342 6.33317 8.00008C6.33317 7.53341 6.49428 7.13897 6.8165 6.81675C7.13873 6.49453 7.53317 6.33342 7.99984 6.33342C8.4665 6.33342 8.86095 6.49453 9.18317 6.81675C9.50539 7.13897 9.6665 7.53341 9.6665 8.00008C9.6665 8.33342 9.57495 8.63897 9.39184 8.91675C9.20828 9.19453 8.9665 9.40008 8.6665 9.53341V11.7334L10.9332 14.0001L9.99984 14.9334L7.99984 12.9334L5.99984 14.9334Z" fill="#F69E8E"/>
</svg>
