<svg width="12" height="14" viewBox="0 0 12 14" fill="none" xmlns="http://www.w3.org/2000/svg">
<path d="M3.33317 10.9999H8.6665V9.66658H3.33317V10.9999ZM3.33317 8.33325H8.6665V6.99992H3.33317V8.33325ZM1.99984 13.6666C1.63317 13.6666 1.31939 13.5361 1.0585 13.2753C0.79717 13.0139 0.666504 12.6999 0.666504 12.3333V1.66659C0.666504 1.29992 0.79717 0.985919 1.0585 0.724585C1.31939 0.463696 1.63317 0.333252 1.99984 0.333252H7.33317L11.3332 4.33325V12.3333C11.3332 12.6999 11.2027 13.0139 10.9418 13.2753C10.6805 13.5361 10.3665 13.6666 9.99984 13.6666H1.99984ZM6.6665 4.99992V1.66659H1.99984V12.3333H9.99984V4.99992H6.6665Z" fill="#5978CF"/>
</svg>
