<svg width="21" height="21" viewBox="0 0 21 21" fill="white" xmlns="http://www.w3.org/2000/svg">
<path d="M13.8703 15.2L15.2703 13.8L11.5703 10.1V5.5H9.57031V10.9L13.8703
 15.2ZM10.5703 20.5C9.18698 20.5 7.88698 20.2373 6.67031 19.712C5.45365 19.1873 4.39531 18.475 
 3.49531 17.575C2.59531 16.675 1.88298 15.6167 1.35831 14.4C0.832979 13.1833 0.570312 11.8833 0.570312 
 10.5C0.570312 9.11667 0.832979 7.81667 1.35831 6.6C1.88298 5.38333 2.59531 4.325 3.49531 3.425C4.39531 
 2.525 5.45365 1.81233 6.67031 1.287C7.88698 0.762333 9.18698 0.5 10.5703 0.5C11.9536 0.5 13.2536 0.762333 
 14.4703 1.287C15.687 1.81233 16.7453 2.525 17.6453 3.425C18.5453 4.325 19.2576 5.38333 19.7823 6.6C20.3076
  7.81667 20.5703 9.11667 20.5703 10.5C20.5703 11.8833 20.3076 13.1833 19.7823 14.4C19.2576 15.6167 18.5453 
  16.675 17.6453 17.575C16.7453 18.475 15.687 19.1873 14.4703 19.712C13.2536 20.2373 11.9536 20.5
   10.5703 20.5Z" fill="#A1A1A1"/>
</svg>
