<svg width="12" height="12" viewBox="0 0 12 12" fill="none" xmlns="http://www.w3.org/2000/svg">
<path d="M7.33333 11.8166V10.4499C8.33333 10.161 9.13889 9.60546 9.75 8.78324C10.3611 7.96101 10.6667 7.02768 10.6667 5.98324C10.6667 4.93879 10.3611 4.00546 9.75 3.18324C9.13889 2.36101 8.33333 1.80546 7.33333 1.51657V0.149902C8.71111 0.461013 9.83333 1.15812 10.7 2.24124C11.5667 3.32479 12 4.57212 12 5.98324C12 7.39435 11.5667 8.64146 10.7 9.72457C9.83333 10.8081 8.71111 11.5055 7.33333 11.8166ZM0 7.9999V3.9999H2.66667L6 0.666569V11.3332L2.66667 7.9999H0ZM7.33333 8.66657V3.2999C7.85556 3.54435 8.264 3.91101 8.55867 4.3999C8.85289 4.88879 9 5.42212 9 5.9999C9 6.56657 8.85289 7.09146 8.55867 7.57457C8.264 8.05813 7.85556 8.42212 7.33333 8.66657Z" fill="#3FA96A"/>
</svg>
