<svg width="16" height="16" viewBox="0 0 16 16" fill="none" xmlns="http://www.w3.org/2000/svg">
<mask id="mask0_1476_188" style="mask-type:alpha" maskUnits="userSpaceOnUse" x="0" y="0" width="16" height="16">
<rect width="16" height="16" fill="#D9D9D9"/>
</mask>
<g mask="url(#mask0_1476_188)">
<path d="M6.33317 11V4.99995L10.9998 7.99995L6.33317 11ZM7.99984 15.3333C6.79984 15.3333 5.67495 15.0582 4.62517 14.508C3.57495 13.9582 2.69984 13.1888 1.99984 12.2V14H0.666504V9.99995H4.6665V11.3333H3.03317C3.59984 12.1666 4.31917 12.8195 5.19117 13.292C6.06362 13.764 6.99984 14 7.99984 14C9.27762 14 10.4358 13.6333 11.4745 12.9C12.5136 12.1666 13.2443 11.1944 13.6665 9.98328L14.9665 10.2833C14.4665 11.7944 13.5776 13.014 12.2998 13.942C11.0221 14.8695 9.58873 15.3333 7.99984 15.3333ZM0.699837 7.33328C0.777615 6.58884 0.955393 5.87484 1.23317 5.19129C1.51095 4.50817 1.89428 3.87773 2.38317 3.29995L3.33317 4.24995C2.97762 4.70551 2.68873 5.19151 2.4665 5.70795C2.24428 6.22484 2.10539 6.76662 2.04984 7.33328H0.699837ZM4.2665 3.31662L3.3165 2.36662C3.90539 1.87773 4.53873 1.49151 5.2165 1.20795C5.89428 0.92484 6.59984 0.755507 7.33317 0.699951V2.03328C6.7665 2.08884 6.22761 2.22773 5.7165 2.44995C5.20539 2.67217 4.72206 2.96106 4.2665 3.31662ZM11.7498 3.31662C11.2943 2.96106 10.8083 2.67217 10.2918 2.44995C9.77495 2.22773 9.23317 2.08884 8.6665 2.03328V0.699951C9.41095 0.766618 10.1247 0.93884 10.8078 1.21662C11.4914 1.4944 12.1221 1.87773 12.6998 2.36662L11.7498 3.31662ZM13.9665 7.33328C13.9109 6.76662 13.7721 6.22484 13.5498 5.70795C13.3276 5.19151 13.0387 4.70551 12.6832 4.24995L13.6332 3.29995C14.1221 3.87773 14.5054 4.50817 14.7832 5.19129C15.0609 5.87484 15.2332 6.58884 15.2998 7.33328H13.9665Z" fill="#9269CD"/>
</g>
</svg>
