<svg width="21" height="17" viewBox="0 0 21 17" fill="none" xmlns="http://www.w3.org/2000/svg">
<path d="M11.5703 16.5C11.5703 14.9833 11.2826 13.5583 10.7073 12.225C10.1326 10.8917 9.34531 9.725 8.34531 8.725C7.34531 7.725 6.17865 6.93767 4.84531 6.363C3.51198 5.78767 2.08698 5.5 0.570312 5.5V2.5C0.570312 1.95 0.766313 1.47933 1.15831 1.088C1.54965 0.696 2.02031 0.5 2.57031 0.5H18.5703C19.1203 0.5 19.5913 0.696 19.9833 1.088C20.3746 1.47933 20.5703 1.95 20.5703 2.5V14.5C20.5703 15.05 20.3746 15.521 19.9833 15.913C19.5913 16.3043 19.1203 16.5 18.5703 16.5H11.5703ZM7.57031 16.5C7.57031 14.55 6.89131 12.8957 5.53331 11.537C4.17465 10.179 2.52031 9.5 0.570312 9.5V7.5C1.82031 7.5 2.99131 7.73733 4.08331 8.212C5.17465 8.68733 6.12465 9.329 6.93331 10.137C7.74131 10.9457 8.38298 11.896 8.85831 12.988C9.33298 14.0793 9.57031 15.25 9.57031 16.5H7.57031ZM3.57031 16.5C3.57031 15.6667 3.27865 14.9583 2.69531 14.375C2.11198 13.7917 1.40365 13.5 0.570312 13.5V11.5C1.95365 11.5 3.13265 11.9873 4.10731 12.962C5.08265 13.9373 5.57031 15.1167 5.57031 16.5H3.57031ZM13.3203 8.3L17.3203 6L13.3203 3.7L9.32031 6L13.3203 8.3ZM13.3203 11.35L16.0703 9.75V7.65L13.3203 9.25L10.5703 7.65V9.75L13.3203 11.35Z" fill="white"/>
</svg>
