<svg width="25" height="13" viewBox="0 0 25 13" fill="none" xmlns="http://www.w3.org/2000/svg">
<path d="M0.500488 12.0723V10.4973C0.500488 9.7806 0.867155 9.19727 1.60049 8.74727C2.33382 8.29727 3.30049 8.07227 4.50049 8.07227C4.71715 8.07227 4.92549 8.07627 5.12549 8.08427C5.32549 8.09293 5.51715 8.11393 5.70049 8.14727C5.46715 8.49727 5.29216 8.86393 5.17549 9.24727C5.05882 9.6306 5.00049 10.0306 5.00049 10.4473V12.0723H0.500488ZM6.50049 12.0723V10.4473C6.50049 9.91393 6.64649 9.42627 6.93849 8.98427C7.22982 8.54293 7.64216 8.1556 8.17549 7.82227C8.70882 7.48893 9.34649 7.23893 10.0885 7.07227C10.8298 6.9056 11.6338 6.82227 12.5005 6.82227C13.3838 6.82227 14.1965 6.9056 14.9385 7.07227C15.6798 7.23893 16.3172 7.48893 16.8505 7.82227C17.3838 8.1556 17.7922 8.54293 18.0755 8.98427C18.3588 9.42627 18.5005 9.91393 18.5005 10.4473V12.0723H6.50049ZM20.0005 12.0723V10.4473C20.0005 10.0139 19.9462 9.6056 19.8375 9.22227C19.7295 8.83893 19.5672 8.4806 19.3505 8.14727C19.5338 8.11393 19.7215 8.09293 19.9135 8.08427C20.1048 8.07627 20.3005 8.07227 20.5005 8.07227C21.7005 8.07227 22.6672 8.29293 23.4005 8.73427C24.1338 9.17627 24.5005 9.76393 24.5005 10.4973V12.0723H20.0005ZM4.50049 7.07227C3.95049 7.07227 3.47982 6.87627 3.08849 6.48427C2.69649 6.09293 2.50049 5.62227 2.50049 5.07227C2.50049 4.5056 2.69649 4.0306 3.08849 3.64727C3.47982 3.26393 3.95049 3.07227 4.50049 3.07227C5.06715 3.07227 5.54216 3.26393 5.92549 3.64727C6.30882 4.0306 6.50049 4.5056 6.50049 5.07227C6.50049 5.62227 6.30882 6.09293 5.92549 6.48427C5.54216 6.87627 5.06715 7.07227 4.50049 7.07227ZM20.5005 7.07227C19.9505 7.07227 19.4795 6.87627 19.0875 6.48427C18.6962 6.09293 18.5005 5.62227 18.5005 5.07227C18.5005 4.5056 18.6962 4.0306 19.0875 3.64727C19.4795 3.26393 19.9505 3.07227 20.5005 3.07227C21.0672 3.07227 21.5422 3.26393 21.9255 3.64727C22.3088 4.0306 22.5005 4.5056 22.5005 5.07227C22.5005 5.62227 22.3088 6.09293 21.9255 6.48427C21.5422 6.87627 21.0672 7.07227 20.5005 7.07227ZM12.5005 6.07227C11.6672 6.07227 10.9588 5.7806 10.3755 5.19727C9.79216 4.61393 9.50049 3.9056 9.50049 3.07227C9.50049 2.22227 9.79216 1.5096 10.3755 0.934266C10.9588 0.359599 11.6672 0.0722656 12.5005 0.0722656C13.3505 0.0722656 14.0628 0.359599 14.6375 0.934266C15.2128 1.5096 15.5005 2.22227 15.5005 3.07227C15.5005 3.9056 15.2128 4.61393 14.6375 5.19727C14.0628 5.7806 13.3505 6.07227 12.5005 6.07227Z" fill="white"/>
</svg>
