<svg width="21" height="17" viewBox="0 0 21 17" fill="none" xmlns="http://www.w3.org/2000/svg">
<path d="M9.57031 13.5H11.5703V12.5H12.5703C12.8536 12.5 13.0913 12.404 13.2833 12.212C13.4746 12.0207 13.5703 11.7833 13.5703 11.5V8.5C13.5703 8.21667 13.4746 7.979 13.2833 7.787C13.0913 7.59567 12.8536 7.5 12.5703 7.5H9.57031V6.5H13.5703V4.5H11.5703V3.5H9.57031V4.5H8.57031C8.28698 4.5 8.04965 4.59567 7.85831 4.787C7.66631 4.979 7.57031 5.21667 7.57031 5.5V8.5C7.57031 8.78333 7.66631 9.02067 7.85831 9.212C8.04965 9.404 8.28698 9.5 8.57031 9.5H11.5703V10.5H7.57031V12.5H9.57031V13.5ZM2.57031 16.5C2.02031 16.5 1.54965 16.3043 1.15831 15.913C0.766313 15.521 0.570312 15.05 0.570312 14.5V2.5C0.570312 1.95 0.766313 1.47933 1.15831 1.088C1.54965 0.696 2.02031 0.5 2.57031 0.5H18.5703C19.1203 0.5 19.5913 0.696 19.9833 1.088C20.3746 1.47933 20.5703 1.95 20.5703 2.5V14.5C20.5703 15.05 20.3746 15.521 19.9833 15.913C19.5913 16.3043 19.1203 16.5 18.5703 16.5H2.57031Z" fill="white"/>
</svg>
